<?xml version="1.0"?>
<svg xmlns="http://www.w3.org/2000/svg" height="512px" viewBox="-48 0 512 512" width="512px"><path d="m399.53125 30h1.066406c8.285156 0 15-6.714844 15-15s-6.714844-15-15-15h-345.433594c-30.417968 0-55.164062 24.746094-55.164062 55.167969v401.667969c0 30.417968 24.746094 55.164062 55.164062 55.164062h305.269532c30.417968 0 55.167968-24.746094 55.167968-55.164062v-321.335938c0-15.152344-6.144531-28.894531-16.066406-38.875v-66.625zm-96.398438 317.808594c0 6.339844-3.984374 11.996094-9.953124 14.125l-80.335938 28.691406c-1.628906.585938-3.335938.875-5.042969.875s-3.414062-.289062-5.046875-.875l-80.332031-28.691406c-5.972656-2.128906-9.953125-7.785156-9.953125-14.125v-37.90625l80.195312 28.644531c4.863282 1.738281 9.957032 2.621094 15.136719 2.621094 5.175781 0 10.269531-.882813 15.140625-2.625l80.191406-28.640625zm22.179688-77.683594-112.46875 40.167969c-1.628906.582031-3.335938.875-5.042969.875s-3.414062-.292969-5.046875-.875l-112.46875-40.167969c-5.96875-2.132812-9.953125-7.785156-9.953125-14.125s3.984375-11.992188 9.953125-14.125l112.46875-40.167969c1.632813-.582031 3.339844-.871093 5.046875-.871093s3.414063.289062 5.042969.871093l112.46875 40.167969c5.96875 2.132812 9.953125 7.785156 9.953125 14.125s-3.984375 11.992188-9.953125 14.125zm44.21875-189.023438c-2.960938-.496093-6-.765624-9.101562-.765624h-305.265626c-13.875 0-25.164062-11.289063-25.164062-25.167969 0-13.878907 11.289062-25.167969 25.164062-25.167969h314.367188zm0 0" fill="#c2c2c2"/></svg>
