<?xml version="1.0"?>
<svg xmlns="http://www.w3.org/2000/svg" height="512px" viewBox="0 -13 512 512" width="512px"><path d="m256.070312 310.234375-2.410156-.382813h-.003906l-25.898438-4.082031v31.355469h56.484376v-31.355469l-25.847657 4.074219zm0 0" fill="#c2c2c2"/><path d="m314.339844 300.472656v51.703125c0 8.3125-6.738282 15.050781-15.050782 15.050781h-86.578124c-8.3125 0-15.050782-6.738281-15.050782-15.050781v-51.167969l-197.660156-31.214843v201.113281c0 8.3125 6.738281 15.050781 15.050781 15.050781h481.898438c8.3125 0 15.050781-6.738281 15.050781-15.050781v-203.539062zm0 0" fill="#c2c2c2"/><path d="m245.96875 30.101562h20.066406c25.757813 0 48.609375 12.671876 62.65625 32.105469h34.730469c-17.082031-36.699219-54.308594-62.207031-97.386719-62.207031h-20.066406c-43.078125 0-80.304688 25.507812-97.390625 62.207031h34.730469c14.046875-19.4375 36.898437-32.105469 62.660156-32.105469zm0 0" fill="#c2c2c2"/><path d="m255.929688 279.734375 256.070312-42.886719v-129.488281c0-8.3125-6.738281-15.050781-15.050781-15.050781h-481.898438c-8.3125 0-15.050781 6.738281-15.050781 15.050781v131.960937zm0 0" fill="#c2c2c2"/></svg>
