<?xml version="1.0"?>
<svg xmlns="http://www.w3.org/2000/svg" height="512px" viewBox="-40 0 512 512" width="512px"><path d="m296.164062 160.667969h126.714844l-151.878906-151.882813v126.714844c0 13.878906 11.289062 25.167969 25.164062 25.167969zm0 0" fill="#c2c2c2"/><path d="m147.722656 345.433594h55.890625l-27.949219-55.894532zm0 0" fill="#c2c2c2"/><path d="m296.164062 190.667969c-30.417968 0-55.164062-24.75-55.164062-55.167969v-135.5h-185.835938c-30.417968 0-55.164062 24.746094-55.164062 55.167969v401.667969c0 30.417968 24.746094 55.164062 55.164062 55.164062h321.335938c30.417969 0 55.164062-24.746094 55.164062-55.164062v-266.167969zm-33.457031 239.414062c-2.152343 1.078125-4.441406 1.589844-6.695312 1.589844-5.503907 0-10.800781-3.039063-13.429688-8.296875l-23.96875-47.941406h-85.894531l-23.96875 47.941406c-3.703125 7.410156-12.714844 10.414062-20.125 6.707031-7.410156-3.703125-10.414062-12.714843-6.710938-20.121093l80.332032-160.667969c2.542968-5.082031 7.738281-8.292969 13.417968-8.292969 5.683594 0 10.875 3.210938 13.417969 8.292969l80.332031 160.667969c3.707032 7.40625.703126 16.417968-6.707031 20.121093zm73.628907-118.914062h-25.171876v25.167969c0 8.28125-6.714843 15-15 15-8.28125 0-15-6.71875-15-15v-25.167969h-25.164062c-8.285156 0-15-6.71875-15-15 0-8.285157 6.714844-15 15-15h25.164062v-25.167969c0-8.285156 6.71875-15 15-15 8.285157 0 15 6.714844 15 15v25.167969h25.171876c8.28125 0 15 6.714843 15 15 0 8.28125-6.71875 15-15 15zm0 0" fill="#c2c2c2"/></svg>
